<svg width="111" height="51" viewBox="0 0 111 51" fill="none" xmlns="http://www.w3.org/2000/svg">
<g clip-path="url(#clip0_3_14)">
<path d="M4.443 33.81L6.484 37.476L8.538 33.81H9.799L7.03 38.568V42H5.834V38.568L3.13 33.81H4.443ZM15.5173 38.88C15.5173 39.3913 15.4393 39.8507 15.2833 40.258C15.1273 40.6567 14.9106 40.9947 14.6333 41.272C14.3646 41.5493 14.0483 41.7617 13.6843 41.909C13.3203 42.0477 12.9259 42.117 12.5013 42.117C12.0766 42.117 11.6823 42.052 11.3183 41.922C10.9629 41.7833 10.6509 41.584 10.3823 41.324C10.1223 41.0553 9.91427 40.7303 9.75827 40.349C9.61094 39.959 9.53727 39.5127 9.53727 39.01C9.53727 38.4987 9.61527 38.0437 9.77127 37.645C9.92727 37.2463 10.1396 36.9127 10.4083 36.644C10.6856 36.3667 11.0063 36.1587 11.3703 36.02C11.7343 35.8727 12.1286 35.799 12.5533 35.799C12.9779 35.799 13.3679 35.864 13.7233 35.994C14.0873 36.124 14.3993 36.319 14.6593 36.579C14.9279 36.839 15.1359 37.164 15.2833 37.554C15.4393 37.9353 15.5173 38.3773 15.5173 38.88ZM14.3213 38.945C14.3213 38.5377 14.2693 38.191 14.1653 37.905C14.0613 37.619 13.9226 37.385 13.7493 37.203C13.5846 37.021 13.3939 36.891 13.1773 36.813C12.9606 36.7263 12.7396 36.683 12.5143 36.683C12.2889 36.683 12.0679 36.7177 11.8513 36.787C11.6346 36.8563 11.4439 36.9777 11.2793 37.151C11.1146 37.3243 10.9803 37.5583 10.8763 37.853C10.7809 38.139 10.7333 38.503 10.7333 38.945C10.7333 39.3523 10.7853 39.7033 10.8893 39.998C10.9933 40.284 11.1276 40.518 11.2923 40.7C11.4656 40.882 11.6606 41.0163 11.8773 41.103C12.0939 41.1897 12.3149 41.233 12.5403 41.233C12.7656 41.233 12.9866 41.1983 13.2033 41.129C13.4199 41.051 13.6106 40.9253 13.7753 40.752C13.9399 40.57 14.0699 40.336 14.1653 40.05C14.2693 39.7553 14.3213 39.387 14.3213 38.945ZM16.8184 37.918C16.8184 37.58 16.8791 37.281 17.0004 37.021C17.1217 36.7523 17.2907 36.527 17.5074 36.345C17.7327 36.163 17.9971 36.0287 18.3004 35.942C18.6037 35.8467 18.9331 35.799 19.2884 35.799C19.4184 35.799 19.5441 35.8077 19.6654 35.825C19.7867 35.8423 19.9081 35.864 20.0294 35.89H22.6684V36.735H22.2654L21.2254 36.592C21.3901 36.7653 21.5157 36.9647 21.6024 37.19C21.6977 37.4153 21.7454 37.6537 21.7454 37.905C21.7454 38.243 21.6847 38.5463 21.5634 38.815C21.4421 39.075 21.2731 39.296 21.0564 39.478C20.8397 39.66 20.5797 39.7987 20.2764 39.894C19.9731 39.9807 19.6437 40.024 19.2884 40.024C19.0197 40.024 18.7857 40.0067 18.5864 39.972C18.3871 40.0413 18.2484 40.1323 18.1704 40.245C18.0924 40.349 18.0534 40.4617 18.0534 40.583C18.0534 40.7823 18.1184 40.9167 18.2484 40.986C18.3871 41.0553 18.5691 41.09 18.7944 41.09H20.4064C21.0824 41.09 21.5981 41.246 21.9534 41.558C22.3174 41.8613 22.4994 42.2773 22.4994 42.806C22.4994 43.144 22.4257 43.4473 22.2784 43.716C22.1311 43.9847 21.9187 44.2143 21.6414 44.405C21.3727 44.5957 21.0434 44.7387 20.6534 44.834C20.2634 44.938 19.8257 44.99 19.3404 44.99C18.4564 44.99 17.7501 44.8297 17.2214 44.509C16.7014 44.197 16.4414 43.7333 16.4414 43.118C16.4414 42.7973 16.5411 42.5287 16.7404 42.312C16.9484 42.0953 17.2171 41.9307 17.5464 41.818C17.3731 41.6967 17.2431 41.571 17.1564 41.441C17.0697 41.3023 17.0264 41.1203 17.0264 40.895C17.0264 40.6263 17.1044 40.3967 17.2604 40.206C17.4251 40.0153 17.6461 39.8637 17.9234 39.751C17.5767 39.595 17.3037 39.3697 17.1044 39.075C16.9137 38.7717 16.8184 38.386 16.8184 37.918ZM18.2094 42C17.7674 42.1993 17.5464 42.5113 17.5464 42.936C17.5464 43.6987 18.1617 44.08 19.3924 44.08C19.7564 44.08 20.0641 44.0453 20.3154 43.976C20.5667 43.9067 20.7704 43.8157 20.9264 43.703C21.0824 43.5903 21.1951 43.4647 21.2644 43.326C21.3424 43.1873 21.3814 43.0443 21.3814 42.897C21.3814 42.533 21.2557 42.2903 21.0044 42.169C20.7617 42.0563 20.4541 42 20.0814 42H18.2094ZM20.5884 37.944C20.5884 37.4847 20.4671 37.1467 20.2244 36.93C19.9904 36.7133 19.6784 36.605 19.2884 36.605C18.8984 36.605 18.5821 36.7133 18.3394 36.93C18.1054 37.1467 17.9884 37.4673 17.9884 37.892C17.9884 38.3427 18.1054 38.6763 18.3394 38.893C18.5821 39.101 18.8984 39.205 19.2884 39.205C19.6784 39.205 19.9904 39.101 20.2244 38.893C20.4671 38.685 20.5884 38.3687 20.5884 37.944ZM23.8172 36.436C24.0252 36.332 24.2202 36.241 24.4022 36.163C24.5842 36.0763 24.7662 36.007 24.9482 35.955C25.1302 35.903 25.3165 35.864 25.5072 35.838C25.6978 35.812 25.9058 35.799 26.1312 35.799C26.4692 35.799 26.7768 35.838 27.0542 35.916C27.3402 35.9853 27.5828 36.1067 27.7822 36.28C27.9902 36.4533 28.1505 36.683 28.2632 36.969C28.3758 37.2463 28.4322 37.5973 28.4322 38.022V42H27.4832L27.3402 41.324H27.3142C27.0455 41.61 26.7508 41.8137 26.4302 41.935C26.1095 42.0563 25.7542 42.117 25.3642 42.117C25.0695 42.117 24.7965 42.078 24.5452 42C24.3025 41.9133 24.0902 41.7963 23.9082 41.649C23.7262 41.493 23.5832 41.3067 23.4792 41.09C23.3838 40.8733 23.3362 40.6307 23.3362 40.362C23.3362 39.7207 23.5875 39.2353 24.0902 38.906C24.6015 38.568 25.2732 38.399 26.1052 38.399H27.2752V37.879C27.2752 37.437 27.1625 37.138 26.9372 36.982C26.7118 36.8173 26.4085 36.735 26.0272 36.735C25.8018 36.735 25.5418 36.774 25.2472 36.852C24.9612 36.9213 24.6318 37.06 24.2592 37.268L23.8172 36.436ZM27.2882 39.179L26.3262 39.205C25.6762 39.2223 25.2125 39.3393 24.9352 39.556C24.6665 39.764 24.5322 40.0197 24.5322 40.323C24.5322 40.505 24.5625 40.661 24.6232 40.791C24.6838 40.9123 24.7618 41.0077 24.8572 41.077C24.9612 41.1463 25.0782 41.1983 25.2082 41.233C25.3468 41.259 25.4898 41.272 25.6372 41.272C25.9232 41.272 26.2135 41.207 26.5082 41.077C26.8028 40.9383 27.0628 40.7217 27.2882 40.427V39.179ZM35.4514 33.693C35.85 33.693 36.2357 33.7277 36.6084 33.797C36.981 33.8577 37.3494 33.9747 37.7134 34.148L37.4274 35.136C37.0547 34.9627 36.7167 34.8413 36.4134 34.772C36.1187 34.694 35.8154 34.655 35.5034 34.655C35.0094 34.655 34.6194 34.7633 34.3334 34.98C34.0474 35.1967 33.9044 35.5 33.9044 35.89C33.9044 36.2193 34.0084 36.4837 34.2164 36.683C34.433 36.8823 34.784 37.0557 35.2694 37.203L36.0884 37.463C36.8337 37.697 37.358 38.0177 37.6614 38.425C37.9734 38.8237 38.1294 39.2743 38.1294 39.777C38.1294 40.1323 38.0557 40.4573 37.9084 40.752C37.7697 41.038 37.5704 41.285 37.3104 41.493C37.059 41.6923 36.76 41.8483 36.4134 41.961C36.0667 42.065 35.6854 42.117 35.2694 42.117C34.8534 42.117 34.4287 42.078 33.9954 42C33.5707 41.9307 33.146 41.7963 32.7214 41.597L33.0074 40.622C33.38 40.804 33.744 40.9383 34.0994 41.025C34.4547 41.1117 34.8274 41.155 35.2174 41.155C35.6854 41.155 36.084 41.0467 36.4134 40.83C36.7427 40.6133 36.9074 40.2927 36.9074 39.868C36.9074 39.712 36.8814 39.569 36.8294 39.439C36.786 39.3003 36.7037 39.1703 36.5824 39.049C36.4697 38.9277 36.3137 38.815 36.1144 38.711C35.915 38.607 35.6637 38.5073 35.3604 38.412L34.5414 38.152C33.9434 37.9613 33.484 37.7013 33.1634 37.372C32.8427 37.0427 32.6824 36.5963 32.6824 36.033C32.6824 35.3137 32.9164 34.746 33.3844 34.33C33.861 33.9053 34.55 33.693 35.4514 33.693ZM42.7054 36.748H40.9114V40.297C40.9114 40.6003 40.985 40.804 41.1324 40.908C41.2884 41.012 41.4877 41.064 41.7304 41.064C41.9037 41.064 42.0944 41.0467 42.3024 41.012C42.5104 40.9687 42.6924 40.921 42.8484 40.869L43.0304 41.74C42.857 41.8093 42.636 41.87 42.3674 41.922C42.0987 41.974 41.817 42 41.5224 42C40.9157 42 40.4737 41.87 40.1964 41.61C39.919 41.3413 39.7804 40.9557 39.7804 40.453V36.748H38.8704V35.89H39.7804V33.94H40.9114V35.89H42.7054V36.748ZM48.3247 35.89H49.4687V42H48.5717L48.4157 41.233H48.3637C48.1384 41.4843 47.8567 41.6967 47.5187 41.87C47.1894 42.0347 46.8037 42.117 46.3617 42.117C45.729 42.117 45.2134 41.9393 44.8147 41.584C44.4247 41.22 44.2297 40.674 44.2297 39.946V35.89H45.3737V39.803C45.3737 40.063 45.404 40.284 45.4647 40.466C45.534 40.648 45.6207 40.7953 45.7247 40.908C45.8374 41.012 45.9674 41.09 46.1147 41.142C46.262 41.1853 46.4224 41.207 46.5957 41.207C46.9424 41.207 47.2544 41.1333 47.5317 40.986C47.809 40.8387 48.0734 40.635 48.3247 40.375V35.89ZM55.2935 32.77H56.4375V42H55.4755L55.3325 41.324H55.2935C55.0248 41.6013 54.7518 41.805 54.4745 41.935C54.2058 42.0563 53.8635 42.117 53.4475 42.117C53.1182 42.117 52.7975 42.052 52.4855 41.922C52.1822 41.792 51.9092 41.597 51.6665 41.337C51.4238 41.077 51.2288 40.752 51.0815 40.362C50.9342 39.9633 50.8605 39.4953 50.8605 38.958C50.8605 38.4813 50.9212 38.048 51.0425 37.658C51.1725 37.268 51.3545 36.9343 51.5885 36.657C51.8225 36.3797 52.1085 36.1673 52.4465 36.02C52.7845 35.8727 53.1702 35.799 53.6035 35.799C53.9242 35.799 54.2275 35.851 54.5135 35.955C54.8082 36.0503 55.0682 36.1977 55.2935 36.397V32.77ZM55.2935 37.359C54.8862 36.8997 54.4052 36.67 53.8505 36.67C53.6165 36.67 53.3868 36.7133 53.1615 36.8C52.9448 36.878 52.7498 37.008 52.5765 37.19C52.4118 37.372 52.2775 37.606 52.1735 37.892C52.0695 38.178 52.0175 38.5203 52.0175 38.919C52.0175 39.335 52.0652 39.6903 52.1605 39.985C52.2558 40.271 52.3815 40.5093 52.5375 40.7C52.7022 40.882 52.8842 41.0163 53.0835 41.103C53.2915 41.1897 53.4995 41.233 53.7075 41.233C54.3575 41.233 54.8862 40.9513 55.2935 40.388V37.359ZM58.3892 42V35.89H59.5332V42H58.3892ZM58.9612 34.317C58.7619 34.317 58.5886 34.252 58.4412 34.122C58.3026 33.9833 58.2332 33.8143 58.2332 33.615C58.2332 33.4157 58.3026 33.2467 58.4412 33.108C58.5886 32.9693 58.7619 32.9 58.9612 32.9C59.1519 32.9 59.3209 32.9693 59.4682 33.108C59.6156 33.2467 59.6892 33.4157 59.6892 33.615C59.6892 33.8143 59.6156 33.9833 59.4682 34.122C59.3209 34.252 59.1519 34.317 58.9612 34.317ZM67.0095 38.88C67.0095 39.3913 66.9315 39.8507 66.7755 40.258C66.6195 40.6567 66.4028 40.9947 66.1255 41.272C65.8568 41.5493 65.5405 41.7617 65.1765 41.909C64.8125 42.0477 64.4181 42.117 63.9935 42.117C63.5688 42.117 63.1745 42.052 62.8105 41.922C62.4551 41.7833 62.1431 41.584 61.8745 41.324C61.6145 41.0553 61.4065 40.7303 61.2505 40.349C61.1031 39.959 61.0295 39.5127 61.0295 39.01C61.0295 38.4987 61.1075 38.0437 61.2635 37.645C61.4195 37.2463 61.6318 36.9127 61.9005 36.644C62.1778 36.3667 62.4985 36.1587 62.8625 36.02C63.2265 35.8727 63.6208 35.799 64.0455 35.799C64.4701 35.799 64.8601 35.864 65.2155 35.994C65.5795 36.124 65.8915 36.319 66.1515 36.579C66.4201 36.839 66.6281 37.164 66.7755 37.554C66.9315 37.9353 67.0095 38.3773 67.0095 38.88ZM65.8135 38.945C65.8135 38.5377 65.7615 38.191 65.6575 37.905C65.5535 37.619 65.4148 37.385 65.2415 37.203C65.0768 37.021 64.8861 36.891 64.6695 36.813C64.4528 36.7263 64.2318 36.683 64.0065 36.683C63.7811 36.683 63.5601 36.7177 63.3435 36.787C63.1268 36.8563 62.9361 36.9777 62.7715 37.151C62.6068 37.3243 62.4725 37.5583 62.3685 37.853C62.2731 38.139 62.2255 38.503 62.2255 38.945C62.2255 39.3523 62.2775 39.7033 62.3815 39.998C62.4855 40.284 62.6198 40.518 62.7845 40.7C62.9578 40.882 63.1528 41.0163 63.3695 41.103C63.5861 41.1897 63.8071 41.233 64.0325 41.233C64.2578 41.233 64.4788 41.1983 64.6955 41.129C64.9121 41.051 65.1028 40.9253 65.2675 40.752C65.4321 40.57 65.5621 40.336 65.6575 40.05C65.7615 39.7553 65.8135 39.387 65.8135 38.945Z" fill="#907848"/>
<path d="M5.49 25V4H15.75C18.39 4 20.37 4.5 21.69 5.5C23.03 6.5 23.7 7.82 23.7 9.46C23.7 10.56 23.43 11.52 22.89 12.34C22.35 13.14 21.61 13.76 20.67 14.2C19.73 14.64 18.65 14.86 17.43 14.86L18 13.63C19.32 13.63 20.49 13.85 21.51 14.29C22.53 14.71 23.32 15.34 23.88 16.18C24.46 17.02 24.75 18.05 24.75 19.27C24.75 21.07 24.04 22.48 22.62 23.5C21.2 24.5 19.11 25 16.35 25H5.49ZM10.32 21.34H15.99C17.25 21.34 18.2 21.14 18.84 20.74C19.5 20.32 19.83 19.66 19.83 18.76C19.83 17.88 19.5 17.23 18.84 16.81C18.2 16.37 17.25 16.15 15.99 16.15H9.96V12.61H15.15C16.33 12.61 17.23 12.41 17.85 12.01C18.49 11.59 18.81 10.96 18.81 10.12C18.81 9.3 18.49 8.69 17.85 8.29C17.23 7.87 16.33 7.66 15.15 7.66H10.32V21.34ZM32.8995 12.46H43.0095V16.24H32.8995V12.46ZM33.2595 21.1H44.6895V25H28.4295V4H44.2995V7.9H33.2595V21.1ZM54.2925 25L63.6525 4H68.4525L77.8425 25H72.7425L65.0625 6.46H66.9825L59.2725 25H54.2925ZM58.9725 20.5L60.2625 16.81H71.0625L72.3825 20.5H58.9725ZM80.0213 25V4H84.8813V25H80.0213ZM89.865 25V4H98.955C100.835 4 102.455 4.31 103.815 4.93C105.175 5.53 106.225 6.4 106.965 7.54C107.705 8.68 108.075 10.04 108.075 11.62C108.075 13.18 107.705 14.53 106.965 15.67C106.225 16.79 105.175 17.65 103.815 18.25C102.455 18.85 100.835 19.15 98.955 19.15H92.565L94.725 17.02V25H89.865ZM103.215 25L97.965 17.38H103.155L108.465 25H103.215ZM94.725 17.56L92.565 15.28H98.685C100.185 15.28 101.305 14.96 102.045 14.32C102.785 13.66 103.155 12.76 103.155 11.62C103.155 10.46 102.785 9.56 102.045 8.92C101.305 8.28 100.185 7.96 98.685 7.96H92.565L94.725 5.65V17.56Z" fill="#907848"/>
</g>
<defs>
<clipPath id="clip0_3_14">
<rect width="111" height="51" fill="white"/>
</clipPath>
</defs>
</svg>
